<svg width="240" height="251" viewBox="0 0 240 251" fill="none" xmlns="http://www.w3.org/2000/svg">
<g clip-path="url(#clip0_4_115)">
<path d="M121.267 251C170.373 251 210.181 243.943 210.181 235.237C210.181 226.531 170.373 219.473 121.267 219.473C72.1618 219.473 32.3538 226.531 32.3538 235.237C32.3538 243.943 72.1618 251 121.267 251Z" fill="#1C2128"/>
<path d="M47.1677 86.7603C47.1677 63.7956 80.7621 45.179 122.203 45.179C163.644 45.179 197.238 63.7956 197.238 86.7603" stroke="#1C2128" stroke-width="2" stroke-miterlimit="10"/>
<path d="M145.796 61.1891H84.7511C72.6773 40.7927 72.6773 20.3964 84.7511 0H145.796C128.914 20.3964 128.914 40.7927 145.796 61.1891Z" fill="#E5E8EF"/>
<path d="M127.87 7.28441H93.4719V11.6551H127.87V7.28441Z" fill="#1C2128"/>
<path d="M127.87 21.6104H82.3287V23.0673H127.87V21.6104Z" fill="white"/>
<path d="M127.87 29.1376H82.3287V30.5945H127.87V29.1376Z" fill="white"/>
<path d="M127.87 36.6649H82.3287V38.1218H127.87V36.6649Z" fill="white"/>
<path opacity="0.2" d="M204.352 236.735C200.004 236.77 194.249 236.056 193.091 235.349C192.209 234.81 191.857 232.878 191.74 231.986C191.658 231.99 191.611 231.991 191.611 231.991C191.611 231.991 191.855 235.104 193.013 235.812C194.172 236.519 199.926 237.233 204.274 237.198C205.529 237.188 205.963 236.74 205.939 236.077C205.765 236.478 205.286 236.728 204.352 236.735Z" fill="black"/>
<path d="M108.217 47.7996C108.571 47.9621 108.996 47.7199 109.205 47.3908C109.998 46.1375 108.537 44.5214 108.853 43.0712C109.107 41.9094 110.424 41.2199 110.693 40.0617C110.955 38.9363 110.149 37.6678 110.694 36.6494C111.121 35.8517 112.187 35.6417 113.079 35.7815C113.972 35.9213 114.819 36.3145 115.72 36.3695C116.922 36.443 118.067 35.9129 119.241 35.6503C120.416 35.3876 121.849 35.4905 122.54 36.4781C123.427 37.7463 122.527 39.5122 122.836 41.0299C123.081 42.2351 124.088 43.233 124.109 44.4628C124.117 44.8999 122.971 44.5478 123.032 44.9806C123.093 45.4135 122.551 45.0324 122.984 44.981C123.161 44.9375 123.319 44.8388 123.436 44.6991C123.554 44.5594 123.623 44.386 123.636 44.2039C123.687 43.8433 124.363 43.7231 124.355 43.359C124.337 42.5056 125.876 43.081 126.13 42.2661C126.713 40.3663 126.593 38.3197 125.793 36.5012C125.448 35.7248 124.978 34.9901 124.811 34.1566C124.585 33.0251 124.941 31.8104 124.568 30.7186C124.065 29.2472 122.402 28.4971 120.858 28.3448C119.314 28.1925 117.745 28.4652 116.209 28.2405C114.834 28.0393 113.502 27.4418 112.115 27.5284C110.451 27.6323 109.002 28.7073 107.848 29.9144C106.694 31.1214 105.716 32.5097 104.405 33.5438C104.004 33.8205 103.634 34.1399 103.301 34.4965C102.634 35.3118 102.566 36.4732 102.752 37.5113C102.937 38.5494 103.341 39.5396 103.512 40.5803C103.672 41.5584 103.623 42.5576 103.692 43.5463C103.761 44.535 103.966 45.5537 104.56 46.346C104.798 46.6696 105.106 46.9346 105.461 47.1207C105.817 47.3069 106.21 47.4093 106.611 47.4201C106.889 47.4265 107.123 47.1764 107.404 47.2416C107.754 47.3231 107.906 47.6567 108.217 47.7996Z" fill="#1C2128"/>
<path d="M96.3369 119.652L97.3664 125.991L99.4256 123.189L98.2489 118.914L96.3369 119.652Z" fill="#FFCCB6"/>
<path d="M97.6606 71.7383L96.0395 76.0206C96.0395 76.0206 94.4249 97.8325 94.4249 99.4542C94.4249 101.076 95.6015 121.863 96.0428 122.747C96.0428 122.747 97.9548 119.946 100.455 120.389C102.955 120.831 101.926 113.017 101.926 113.017L104.279 93.7046L103.838 83.9746L97.6606 71.7383Z" fill="#6A55EF"/>
<path opacity="0.1" d="M97.6606 71.7383L96.0395 76.0206C96.0395 76.0206 94.4249 97.8325 94.4249 99.4542C94.4249 101.076 95.6015 121.863 96.0428 122.747C96.0428 122.747 97.9548 119.946 100.455 120.389C102.955 120.831 101.926 113.017 101.926 113.017L104.279 93.7046L103.838 83.9746L97.6606 71.7383Z" fill="black"/>
<path d="M107.662 48.1503C107.662 48.1503 112.516 60.534 109.721 62.8928C106.927 65.2516 125.311 58.9123 125.311 58.9123L124.87 57.2906C124.87 57.2906 118.84 54.9318 121.781 48.1503C124.723 41.3688 107.662 48.1503 107.662 48.1503Z" fill="#FFCCB6"/>
<path opacity="0.1" d="M107.662 48.1503C107.662 48.1503 112.516 60.534 109.721 62.8928C106.927 65.2516 125.311 58.9123 125.311 58.9123L124.87 57.2906C124.87 57.2906 118.84 54.9318 121.781 48.1503C124.723 41.3688 107.662 48.1503 107.662 48.1503Z" fill="black"/>
<path d="M100.014 213.561C100.014 213.561 97.9548 212.971 96.7782 214.446C95.6016 215.92 91.1892 219.606 91.1892 219.606C91.1892 219.606 82.6587 218.721 81.4821 222.996C80.3054 227.272 94.8662 227.272 98.3961 226.24C101.926 225.208 102.661 226.24 102.661 226.24C102.661 226.24 113.545 227.124 113.545 225.355C113.545 223.586 112.516 217.542 112.516 217.542L100.014 213.561Z" fill="white"/>
<path d="M134.577 223.439L132.665 229.336C132.665 229.336 126.929 237.297 130.165 238.918C133.401 240.54 144.873 242.162 144.873 237.886V229.778C144.873 229.778 143.696 224.028 142.52 223.439C141.343 222.849 134.577 223.439 134.577 223.439Z" fill="white"/>
<path d="M102.097 117.494C102.097 117.494 95.8957 122.895 96.0428 123.632C96.1899 124.369 99.1314 171.692 99.1314 171.692L100.749 202.357C100.749 202.357 98.6902 209.581 99.7197 211.202C100.749 212.824 98.249 213.266 98.249 213.266C98.249 213.266 108.839 222.849 113.251 218.721L117.369 165.206L128.694 204.126C128.694 204.126 130.606 224.765 132.812 224.765C135.019 224.765 143.99 225.208 143.843 224.028C143.696 222.849 144.284 213.856 143.255 208.549C142.225 203.241 135.313 161.225 135.313 161.225C135.313 161.225 134.718 125.206 136.266 121.839C137.813 118.472 135.46 114.934 135.46 114.934L125.164 110.953L112.81 112.428L102.097 117.494Z" fill="#1C2128"/>
<path d="M114.575 53.1627C120.261 53.1627 124.87 48.5424 124.87 42.843C124.87 37.1435 120.261 32.5232 114.575 32.5232C108.889 32.5232 104.279 37.1435 104.279 42.843C104.279 48.5424 108.889 53.1627 114.575 53.1627Z" fill="#FFCCB6"/>
<path d="M139.578 65.1042C139.069 63.6618 138.212 62.3682 137.083 61.3391C135.953 60.3101 134.587 59.5776 133.107 59.2072C130.14 58.4592 127.238 57.4731 124.429 56.2587C124.429 56.2587 113.986 61.2711 111.927 61.2711C109.868 61.2711 109.868 59.9443 109.868 59.9443C109.868 59.9443 104.573 65.5465 101.779 66.1362C98.9843 66.7259 94.8662 73.6548 96.3369 77.4879C97.3359 79.9453 98.7823 82.1949 100.602 84.122C100.602 84.122 100.014 104.761 101.926 108.595C101.926 108.595 97.2194 117.587 101.632 118.177C106.044 118.767 122.958 116.703 125.9 118.767C128.841 120.831 134.283 118.325 135.019 121.126C135.754 123.927 137.372 124.516 137.372 124.516C137.372 124.516 139.872 120.536 138.401 118.177C136.931 115.818 139.578 65.1042 139.578 65.1042Z" fill="#6A55EF"/>
<path d="M128.694 120.536L126.341 122.01C126.341 122.01 128.841 130.708 129.871 131.003C130.9 131.298 133.324 123.566 133.324 123.566L128.694 120.536Z" fill="#FFCCB6"/>
<path d="M106.452 46.7677C106.806 46.9301 107.231 46.6879 107.44 46.3588C108.233 45.1055 106.772 43.4894 107.089 42.0392C107.342 40.8774 108.659 40.1879 108.928 39.0297C109.19 37.9043 108.384 36.6358 108.929 35.6175C109.356 34.8197 110.422 34.6098 111.314 34.7495C112.207 34.8893 113.054 35.2825 113.955 35.3376C115.157 35.411 116.302 34.8809 117.476 34.6183C118.651 34.3557 120.084 34.4585 120.775 35.4462C121.662 36.7144 120.762 38.4803 121.071 39.998C121.316 41.2031 124.111 42.049 124.365 41.2341C124.948 39.3344 124.828 37.2877 124.028 35.4692C123.683 34.6928 123.213 33.9581 123.046 33.1247C122.82 31.9931 123.176 30.7784 122.803 29.6866C122.3 28.2152 120.637 27.4652 119.093 27.3128C117.549 27.1605 115.98 27.4332 114.444 27.2086C113.069 27.0073 111.738 26.4098 110.35 26.4964C108.686 26.6003 107.237 27.6753 106.083 28.8824C104.929 30.0894 103.951 31.4778 102.64 32.5118C102.239 32.7885 101.869 33.108 101.536 33.4645C100.869 34.2798 100.801 35.4412 100.987 36.4793C101.172 37.5174 101.576 38.5077 101.747 39.5484C101.907 40.5264 101.858 41.5256 101.927 42.5143C101.996 43.503 102.201 44.5217 102.795 45.314C103.033 45.6376 103.341 45.9026 103.696 46.0888C104.052 46.2749 104.445 46.3773 104.846 46.3882C105.124 46.3946 105.358 46.1444 105.639 46.2096C105.989 46.2912 106.141 46.6247 106.452 46.7677Z" fill="#1C2128"/>
<path opacity="0.1" d="M133.768 67.6841L138.548 65.1042C138.548 65.1042 150.168 92.8201 147.373 100.486C144.579 108.152 133.842 123.927 133.842 123.927C133.842 123.927 125.311 122.158 126.194 120.389C127.076 118.619 132.812 107.268 133.254 105.793C133.695 104.319 136.636 94.7366 135.313 93.7046C133.989 92.6726 131.415 68.7161 131.415 68.7161L133.768 67.6841Z" fill="black"/>
<path d="M133.695 63.4825L139.578 65.1042C139.578 65.1042 151.197 92.8201 148.403 100.486C145.608 108.152 134.871 123.927 134.871 123.927C134.871 123.927 126.341 122.158 127.223 120.389C128.106 118.619 133.842 107.268 134.283 105.793C134.724 104.319 137.666 94.7366 136.342 93.7046C135.019 92.6726 128.694 67.1681 128.694 67.1681L133.695 63.4825Z" fill="#6A55EF"/>
<path d="M197.238 86.7603C197.238 110.837 163.644 130.355 122.203 130.355C80.7621 130.355 47.1677 110.837 47.1677 86.7603" stroke="#1C2128" stroke-width="2" stroke-miterlimit="10"/>
<path d="M183.589 130.974C166.817 140.041 144.932 145.528 120.993 145.528C98.0394 145.528 76.9753 140.484 60.4951 132.077" stroke="#1C2128" stroke-width="2" stroke-miterlimit="10"/>
<path d="M159.675 33.9231C191.594 42.3325 214.327 60.8303 216.441 82.6166" stroke="#1C2128" stroke-width="2" stroke-miterlimit="10"/>
<path d="M29.9897 68.456C35.3679 58.5477 45.193 49.828 58.0659 43.1291" stroke="#1C2128" stroke-width="2" stroke-miterlimit="10"/>
<path d="M95.9776 174.52H157.023C169.097 154.123 169.097 133.727 157.023 113.331H95.9776C112.86 133.727 112.86 154.123 95.9776 174.52Z" fill="#E5E8EF"/>
<path d="M150.575 124.986H116.176V129.356H150.575V124.986Z" fill="#1C2128"/>
<path d="M159.053 138.098H113.511V139.555H159.053V138.098Z" fill="white"/>
<path d="M159.053 145.625H113.511V147.082H159.053V145.625Z" fill="white"/>
<path d="M70.1005 132.987H9.05538C-3.01846 112.591 -3.01846 92.1947 9.05538 71.7984H70.1005C53.2185 92.1947 53.2185 112.591 70.1005 132.987Z" fill="#E5E8EF"/>
<path d="M50.2366 79.0828H15.8382V83.4534H50.2366V79.0828Z" fill="#1C2128"/>
<path d="M53.8703 91.2235H8.32864V92.6804H53.8703V91.2235Z" fill="white"/>
<path d="M53.8703 98.7507H8.32864V100.208H53.8703V98.7507Z" fill="white"/>
<path d="M53.8703 106.278H8.32864V107.735H53.8703V106.278Z" fill="white"/>
<path d="M53.8703 113.805H8.32864V115.262H53.8703V113.805Z" fill="white"/>
<path d="M169.899 104.802H230.945C243.018 84.4053 243.018 64.0089 230.945 43.6126H169.899C186.782 64.0089 186.782 84.4053 169.899 104.802Z" fill="#E5E8EF"/>
<path d="M223.77 49.6829H189.371V54.0536H223.77V49.6829Z" fill="#1C2128"/>
<path d="M231.279 61.8236H185.738V63.2805H231.279V61.8236Z" fill="white"/>
</g>
<defs>
<clipPath id="clip0_4_115">
<rect width="240" height="251" fill="white"/>
</clipPath>
</defs>
</svg>
