<svg width="300" height="270" viewBox="0 0 300 270" fill="none" xmlns="http://www.w3.org/2000/svg">
<path d="M297.062 103.068C296.955 103.068 296.85 103.035 296.762 102.973L151.354 1.52334C150.912 1.21605 150.386 1.05183 149.848 1.05275C149.309 1.05367 148.784 1.21968 148.342 1.52849L3.98241 102.972C3.86822 103.052 3.72691 103.084 3.58954 103.06C3.45217 103.036 3.32999 102.958 3.24991 102.843C3.16982 102.729 3.13837 102.587 3.16247 102.45C3.18658 102.312 3.26428 102.19 3.37846 102.11L147.739 0.665867C148.357 0.233607 149.092 0.00124604 149.846 4.99738e-06C150.6 -0.00123605 151.336 0.2287 151.955 0.658923L297.363 102.108C297.455 102.173 297.524 102.264 297.56 102.371C297.596 102.477 297.597 102.592 297.564 102.699C297.53 102.806 297.464 102.899 297.373 102.966C297.283 103.032 297.174 103.068 297.062 103.068L297.062 103.068Z" fill="#323B47"/>
<path d="M12.2316 106.664L149.991 4.38184L288.795 113.941L157.089 192.161L85.5834 175.832L12.2316 106.664Z" fill="#E5E8EF"/>
<path d="M91.619 240.473H23.5627C23.1448 240.474 22.7309 240.392 22.3447 240.232C21.9584 240.072 21.6075 239.838 21.3118 239.542C21.0161 239.246 20.7815 238.895 20.6215 238.508C20.4614 238.121 20.3791 237.707 20.3791 237.288C20.3791 236.869 20.4614 236.455 20.6215 236.068C20.7815 235.681 21.0161 235.33 21.3118 235.034C21.6075 234.738 21.9584 234.504 22.3447 234.344C22.7309 234.184 23.1448 234.102 23.5627 234.103H91.619C92.0369 234.102 92.4508 234.184 92.8371 234.344C93.2233 234.504 93.5743 234.738 93.87 235.034C94.1656 235.33 94.4002 235.681 94.5603 236.068C94.7203 236.455 94.8027 236.869 94.8027 237.288C94.8027 237.707 94.7203 238.121 94.5603 238.508C94.4002 238.895 94.1656 239.246 93.87 239.542C93.5743 239.838 93.2233 240.072 92.8371 240.232C92.4508 240.392 92.0369 240.474 91.619 240.473Z" fill="#6A55EF"/>
<path d="M47.9798 226.779H23.5627C23.1448 226.779 22.7309 226.697 22.3447 226.537C21.9584 226.377 21.6075 226.143 21.3118 225.847C21.0161 225.551 20.7815 225.2 20.6215 224.813C20.4614 224.426 20.3791 224.012 20.3791 223.593C20.3791 223.175 20.4614 222.76 20.6215 222.373C20.7815 221.987 21.0161 221.635 21.3118 221.339C21.6075 221.044 21.9584 220.809 22.3447 220.649C22.7309 220.489 23.1448 220.407 23.5627 220.408H47.9798C48.3977 220.407 48.8116 220.489 49.1978 220.649C49.5841 220.809 49.935 221.044 50.2307 221.339C50.5264 221.635 50.761 221.987 50.921 222.373C51.0811 222.76 51.1634 223.175 51.1634 223.593C51.1634 224.012 51.0811 224.426 50.921 224.813C50.761 225.2 50.5264 225.551 50.2307 225.847C49.935 226.143 49.5841 226.377 49.1978 226.537C48.8116 226.697 48.3977 226.779 47.9798 226.779Z" fill="#6A55EF"/>
<path d="M151.928 163.633C151.41 163.634 150.898 163.533 150.419 163.337L65.459 128.021V17.4741C65.4601 16.4966 65.8482 15.5594 66.5382 14.8682C67.2282 14.177 68.1636 13.7881 69.1394 13.787H232.129C233.105 13.7881 234.041 14.177 234.731 14.8682C235.421 15.5594 235.809 16.4966 235.81 17.4741V128.098L235.65 128.166L153.482 163.32C152.99 163.527 152.461 163.634 151.928 163.633Z" fill="white"/>
<path d="M151.928 163.896C151.376 163.897 150.83 163.79 150.319 163.581L65.196 128.197V17.474C65.1972 16.4267 65.6131 15.4225 66.3523 14.6819C67.0916 13.9413 68.0939 13.5247 69.1393 13.5236H232.129C233.175 13.5247 234.177 13.9413 234.916 14.6819C235.656 15.4225 236.071 16.4267 236.073 17.474V128.272L153.585 163.562C153.06 163.783 152.497 163.897 151.928 163.896ZM66.2476 127.493L150.72 162.607C151.508 162.927 152.39 162.922 153.174 162.592L235.021 127.576V17.474C235.02 16.706 234.715 15.9696 234.173 15.4265C233.631 14.8834 232.896 14.5779 232.129 14.577H69.1394C68.3727 14.5779 67.6377 14.8834 67.0956 15.4265C66.5535 15.9696 66.2485 16.706 66.2476 17.474L66.2476 127.493Z" fill="#323B47"/>
<path d="M296.011 102.014H295.905L235.547 127.834L152.964 163.162C152.641 163.298 152.295 163.369 151.944 163.371C151.594 163.373 151.247 163.305 150.923 163.173L65.7217 127.761L3.88015 102.056L3.78568 102.014H3.68042C2.70464 102.015 1.76914 102.404 1.07916 103.095C0.389184 103.786 0.0010827 104.724 0 105.701V265.827C0.00108409 266.804 0.389185 267.741 1.07916 268.433C1.76914 269.124 2.70464 269.513 3.68042 269.514H296.011C296.987 269.513 297.922 269.124 298.612 268.433C299.302 267.741 299.69 266.804 299.691 265.827V105.701C299.69 104.724 299.302 103.786 298.612 103.095C297.922 102.404 296.987 102.015 296.011 102.014ZM298.64 265.827C298.639 266.525 298.362 267.195 297.869 267.689C297.376 268.183 296.708 268.46 296.011 268.46H3.68042C2.98328 268.46 2.31479 268.183 1.82184 267.689C1.32889 267.195 1.05183 266.525 1.05155 265.827V105.701C1.0525 105.02 1.3162 104.366 1.78752 103.875C2.25883 103.384 2.90127 103.095 3.58055 103.067L65.7217 128.898L150.519 164.147C151.437 164.521 152.465 164.515 153.379 164.131L235.547 128.977L296.116 103.067C296.794 103.097 297.435 103.387 297.905 103.877C298.375 104.368 298.638 105.021 298.64 105.701V265.827Z" fill="#323B47"/>
<path d="M151.079 132.286C147.942 132.292 144.889 131.276 142.379 129.392L142.224 129.274L109.462 104.146C107.945 102.981 106.671 101.528 105.715 99.8706C104.758 98.213 104.136 96.3827 103.885 94.4844C103.634 92.5861 103.759 90.6568 104.253 88.8069C104.746 86.9569 105.598 85.2223 106.761 83.7023C107.923 82.1823 109.373 80.9066 111.028 79.948C112.683 78.9894 114.51 78.3666 116.404 78.1154C118.299 77.8641 120.225 77.9891 122.072 78.4835C123.918 78.9778 125.65 79.8316 127.167 80.9962L148.387 97.2973L198.535 31.7792C199.698 30.2596 201.148 28.9844 202.803 28.0263C204.458 27.0683 206.285 26.4462 208.18 26.1956C210.075 25.945 212.001 26.0708 213.847 26.5658C215.694 27.0608 217.425 27.9153 218.942 29.0805L218.63 29.5046L218.95 29.0867C222.009 31.4425 224.011 34.918 224.516 38.7508C225.021 42.5835 223.988 46.4603 221.644 49.5309L162.658 126.596C161.294 128.372 159.54 129.809 157.532 130.796C155.524 131.783 153.315 132.293 151.079 132.286Z" fill="#6A55EF"/>
</svg>
